<svg width="52" height="52" viewBox="0 0 52 52" fill="none" xmlns="http://www.w3.org/2000/svg">
<rect x="1" y="1" width="50" height="50" rx="25" stroke="#F8F8F8" stroke-width="2"/>
<path d="M20.7923 17.501C22.3699 17.4908 23.9364 17.9995 25.1458 19.0098C25.5476 19.3449 26.1317 19.3481 26.5364 19.0157C31.0047 15.3401 37.6981 18.818 37.1927 24.5498V24.5567C37.1924 24.5595 37.1913 24.5641 37.1907 24.5694V24.5723C37.006 26.5214 35.9625 28.3709 34.595 30.0401C33.232 31.7037 31.5534 33.1807 30.1038 34.3955L30.0794 34.4141L30.0726 34.4209C28.9236 35.405 27.383 36.4322 26.1116 37.2403C26.017 37.3004 25.9348 37.3183 25.8626 37.3194C25.7855 37.3204 25.7014 37.3017 25.6136 37.2637C25.5906 37.2537 25.5548 37.2353 25.5032 37.2061L25.345 37.1104L25.1126 36.9522L25.1087 36.9492L25.0999 36.9434L24.2054 36.3487C22.0449 34.8782 19.3743 32.7992 17.3821 30.4082C15.1001 27.6691 13.725 24.5431 14.972 21.4561C15.9668 18.9944 18.197 17.6258 20.7835 17.501H20.7923ZM30.6976 18.4903L30.6888 18.4912L30.6732 18.4932L30.6575 18.4961L30.5911 18.5078H30.5892L30.5452 18.5157L30.5403 18.5166H30.5384C30.5384 18.5166 30.5366 18.5172 30.5345 18.5176C30.5321 18.518 30.5291 18.518 30.5257 18.5186L30.5247 18.5196L30.4954 18.5244L30.4818 18.5254C28.5908 18.5423 27.1268 19.6682 25.9495 21.0049C25.8559 21.0531 25.7556 21.0331 25.6927 20.959C24.4851 19.5369 22.9748 18.5349 21.0482 18.5186C17.9556 18.4931 15.5068 20.8772 15.5286 23.9864C15.542 25.8265 16.4328 27.5422 17.6321 29.0762C18.8268 30.6039 20.3365 31.9626 21.6146 33.0957L21.6155 33.0967C21.6171 33.0981 21.6189 33.0993 21.6204 33.1006L21.6341 33.1123L21.638 33.1162L21.64 33.1172L22.0736 33.4785L22.0804 33.4844L22.0862 33.4893L22.095 33.4961C23.0128 34.2496 24.2515 35.2051 25.265 35.8252C25.6365 36.0521 26.1091 36.0364 26.4652 35.7832C26.5112 35.7505 26.5569 35.717 26.6048 35.6836L26.6058 35.6846L26.6087 35.6826L26.68 35.6348L26.6868 35.6241L27.9417 34.7373L27.9564 34.7276L27.9642 34.7227L27.972 34.7168C29.8746 33.3408 32.5099 31.2158 34.2767 28.8018C36.0468 26.3828 36.9602 23.6488 35.3528 21.0869C34.7516 20.1289 33.8826 19.3769 32.8519 18.9375L32.9915 18.7989L32.0042 18.6573L31.7298 18.6026L31.7161 18.5996C31.5845 18.577 31.4326 18.5553 31.2796 18.5371C31.1882 18.5263 31.0956 18.5163 31.0081 18.5098C30.9812 18.504 30.9496 18.496 30.9153 18.4922L30.8929 18.4903L30.8694 18.4893L30.762 18.4873L30.7298 18.4864L30.6976 18.4903Z" fill="#F8F8F8"/>
<path d="M30.6976 18.4903L30.6888 18.4912L30.6732 18.4932L30.6575 18.4961L30.5911 18.5078H30.5892L30.5452 18.5157L30.5403 18.5166H30.5384C30.5384 18.5166 30.5366 18.5172 30.5345 18.5176C30.5321 18.518 30.5291 18.518 30.5257 18.5186L30.5247 18.5196L30.4954 18.5244L30.4818 18.5254C28.5908 18.5423 27.1268 19.6682 25.9495 21.0049C25.8559 21.0531 25.7556 21.0331 25.6927 20.959C24.4851 19.5369 22.9748 18.5349 21.0482 18.5186C17.9556 18.4931 15.5068 20.8772 15.5286 23.9864C15.542 25.8265 16.4328 27.5422 17.6321 29.0762C18.8268 30.6039 20.3365 31.9626 21.6146 33.0957L21.6155 33.0967C21.6171 33.0981 21.6189 33.0993 21.6204 33.1006L21.6341 33.1123L21.638 33.1162L21.64 33.1172L22.0736 33.4785L22.0804 33.4844L22.0862 33.4893L22.095 33.4961C23.0128 34.2496 24.2515 35.2051 25.265 35.8252C25.6365 36.0521 26.1091 36.0364 26.4652 35.7832C26.5112 35.7505 26.5569 35.717 26.6048 35.6836L26.6058 35.6846L26.6087 35.6826L26.68 35.6348L26.6868 35.6241L27.9417 34.7373L27.9564 34.7276L27.9642 34.7227L27.972 34.7168C29.8746 33.3408 32.5099 31.2158 34.2767 28.8018C36.0468 26.3828 36.9602 23.6488 35.3528 21.0869C34.7516 20.1289 33.8826 19.3769 32.8519 18.9375L32.9915 18.7989L32.0042 18.6573L31.7298 18.6026L31.7161 18.5996C31.5845 18.577 31.4326 18.5553 31.2796 18.5371C31.1882 18.5263 31.0956 18.5163 31.0081 18.5098C30.9812 18.504 30.9496 18.496 30.9153 18.4922L30.8929 18.4903L30.8694 18.4893L30.762 18.4873L30.7298 18.4864L30.6976 18.4903Z" fill="url(#paint0_linear_97_1768)"/>
<defs>
<linearGradient id="paint0_linear_97_1768" x1="25.8603" y1="17.5009" x2="19.0844" y2="38.3602" gradientUnits="userSpaceOnUse">
<stop stop-color="#D7FB21"/>
<stop offset="1" stop-color="#95BC00"/>
</linearGradient>
</defs>
</svg>
