<svg width="52" height="52" viewBox="0 0 52 52" fill="none" xmlns="http://www.w3.org/2000/svg">
<g filter="url(#filter0_d_97_807)">
<path fill-rule="evenodd" clip-rule="evenodd" d="M21.9953 30.7005C23.9283 30.7005 25.4953 32.2675 25.4953 34.2005C25.4953 36.1334 23.9283 37.7005 21.9953 37.7005C20.0624 37.7004 18.4953 36.1334 18.4953 34.2005C18.4953 32.2675 20.0624 30.7005 21.9953 30.7005ZM21.9953 32.7005C21.1669 32.7005 20.4953 33.3721 20.4953 34.2005C20.4953 35.0288 21.167 35.7004 21.9953 35.7005C22.8237 35.7005 23.4953 35.0289 23.4953 34.2005C23.4953 33.372 22.8237 32.7005 21.9953 32.7005Z" fill="#F8F8F8"/>
<path fill-rule="evenodd" clip-rule="evenodd" d="M29.9953 30.7005C31.9283 30.7005 33.4953 32.2675 33.4953 34.2005C33.4953 36.1334 31.9283 37.7005 29.9953 37.7005C28.0624 37.7004 26.4953 36.1334 26.4953 34.2005C26.4953 32.2675 28.0624 30.7005 29.9953 30.7005ZM29.9953 32.7005C29.1669 32.7005 28.4953 33.3721 28.4953 34.2005C28.4953 35.0288 29.167 35.7004 29.9953 35.7005C30.8237 35.7005 31.4953 35.0289 31.4953 34.2005C31.4953 33.372 30.8237 32.7005 29.9953 32.7005Z" fill="#F8F8F8"/>
<path fill-rule="evenodd" clip-rule="evenodd" d="M36.1242 15.6292C36.3293 15.1164 36.9112 14.8664 37.424 15.0716C37.9367 15.2767 38.1857 15.8586 37.9807 16.3714L36.1242 21.0139C36.042 21.2195 35.8984 21.3819 35.7238 21.4905C35.7299 21.8164 35.6835 22.1515 35.5744 22.4846L33.6105 28.4846L33.5266 28.7112C33.0627 29.8183 31.9749 30.5511 30.759 30.5511H20.966L20.7238 30.5413C19.6073 30.4514 18.6313 29.7444 18.1984 28.7112L18.1144 28.4846L16.1506 22.4846C15.5156 20.5451 16.9604 18.5512 19.0012 18.5511H32.7238L32.9133 18.5569C33.5912 18.5984 34.1951 18.8614 34.6682 19.2659L36.1242 15.6292ZM19.0012 20.5511C18.321 20.5512 17.8393 21.2161 18.051 21.8626L20.0148 27.8626C20.1495 28.2732 20.5338 28.551 20.966 28.5511H30.759C31.1912 28.5511 31.5754 28.2732 31.7102 27.8626L33.674 21.8626C33.8857 21.2161 33.404 20.5511 32.7238 20.5511H19.0012Z" fill="#F8F8F8"/>
<path d="M19.0012 20.5511C18.321 20.5512 17.8393 21.2161 18.051 21.8626L20.0148 27.8626C20.1495 28.2732 20.5338 28.551 20.966 28.5511H30.759C31.1912 28.5511 31.5754 28.2732 31.7102 27.8626L33.674 21.8626C33.8857 21.2161 33.404 20.5511 32.7238 20.5511H19.0012Z" fill="#1E1E1E"/>
<path d="M21.9953 32.7005C21.1669 32.7005 20.4953 33.3721 20.4953 34.2005C20.4953 35.0288 21.167 35.7004 21.9953 35.7005C22.8237 35.7005 23.4953 35.0289 23.4953 34.2005C23.4953 33.372 22.8237 32.7005 21.9953 32.7005Z" fill="#1E1E1E"/>
<path d="M29.9953 32.7005C29.1669 32.7005 28.4953 33.3721 28.4953 34.2005C28.4953 35.0288 29.167 35.7004 29.9953 35.7005C30.8237 35.7005 31.4953 35.0289 31.4953 34.2005C31.4953 33.372 30.8237 32.7005 29.9953 32.7005Z" fill="#1E1E1E"/>
</g>
<defs>
<filter id="filter0_d_97_807" x="2.19942" y="1.19985" width="49.653" height="50.3006" filterUnits="userSpaceOnUse" color-interpolation-filters="sRGB">
<feFlood flood-opacity="0" result="BackgroundImageFix"/>
<feColorMatrix in="SourceAlpha" type="matrix" values="0 0 0 0 0 0 0 0 0 0 0 0 0 0 0 0 0 0 127 0" result="hardAlpha"/>
<feOffset/>
<feGaussianBlur stdDeviation="6.9"/>
<feComposite in2="hardAlpha" operator="out"/>
<feColorMatrix type="matrix" values="0 0 0 0 0.813559 0 0 0 0 1 0 0 0 0 0 0 0 0 1 0"/>
<feBlend mode="normal" in2="BackgroundImageFix" result="effect1_dropShadow_97_807"/>
<feBlend mode="normal" in="SourceGraphic" in2="effect1_dropShadow_97_807" result="shape"/>
</filter>
</defs>
</svg>
