<svg width="52" height="52" viewBox="0 0 52 52" fill="none" xmlns="http://www.w3.org/2000/svg">
<g filter="url(#filter0_d_97_816)">
<path fill-rule="evenodd" clip-rule="evenodd" d="M23.2354 16.1094C24.7818 14.6304 27.2182 14.6304 28.7646 16.1094L34.7646 21.8486C35.5535 22.6032 36 23.6476 36 24.7392V31.4648C36 33.6739 34.2091 35.4648 32 35.4648H20L19.7939 35.4599C17.6806 35.3527 16 33.6048 16 31.4648V24.7392C16 23.7158 16.3918 22.7336 17.0908 21.9932L17.2354 21.8486L23.2354 16.1094ZM27.3828 17.5547C26.6096 16.8151 25.3904 16.8151 24.6172 17.5547L18.6172 23.2939C18.2229 23.6712 18 24.1935 18 24.7392V31.4648C18 32.5694 18.8955 33.4648 20 33.4648H22.5352C22.227 32.9323 22.0379 32.3222 22.0049 31.6709L22 31.4648V29.7344C22.0001 28.5673 22.5097 27.4581 23.3955 26.6982C24.8938 25.4131 27.1062 25.4131 28.6045 26.6982C29.4903 27.4581 29.9999 28.5673 30 29.7344V31.4648C30 32.1936 29.8044 32.8764 29.4639 33.4648H32C33.1045 33.4648 34 32.5694 34 31.4648V24.7392C34 24.1935 33.7771 23.6712 33.3828 23.2939L27.3828 17.5547ZM27.3018 28.2168C26.5527 27.5744 25.4473 27.5744 24.6982 28.2168C24.2554 28.5967 24.0001 29.1509 24 29.7344V31.4648C24 32.5694 24.8954 33.4648 26 33.4648C27.1046 33.4648 28 32.5694 28 31.4648V29.7344C27.9999 29.1509 27.7446 28.5967 27.3018 28.2168Z" fill="#F8F8F8"/>
<path d="M27.3828 17.5547C26.6096 16.8151 25.3904 16.8151 24.6172 17.5547L18.6172 23.2939C18.2229 23.6712 18 24.1935 18 24.7392V31.4648C18 32.5694 18.8955 33.4648 20 33.4648H22.5352C22.227 32.9323 22.0379 32.3222 22.0049 31.6709L22 31.4648V29.7344C22.0001 28.5673 22.5097 27.4581 23.3955 26.6982C24.8938 25.4131 27.1062 25.4131 28.6045 26.6982C29.4903 27.4581 29.9999 28.5673 30 29.7344V31.4648C30 32.1936 29.8044 32.8764 29.4639 33.4648H32C33.1045 33.4648 34 32.5694 34 31.4648V24.7392C34 24.1935 33.7771 23.6712 33.3828 23.2939L27.3828 17.5547Z" fill="#1E1E1E"/>
<path d="M27.3018 28.2168C26.5527 27.5744 25.4473 27.5744 24.6982 28.2168C24.2554 28.5967 24.0001 29.1509 24 29.7344V31.4648C24 32.5694 24.8954 33.4648 26 33.4648C27.1046 33.4648 28 32.5694 28 31.4648V29.7344C27.9999 29.1509 27.7446 28.5967 27.3018 28.2168Z" fill="#1E1E1E"/>
</g>
<defs>
<filter id="filter0_d_97_816" x="2.2" y="1.20012" width="47.6" height="48.0647" filterUnits="userSpaceOnUse" color-interpolation-filters="sRGB">
<feFlood flood-opacity="0" result="BackgroundImageFix"/>
<feColorMatrix in="SourceAlpha" type="matrix" values="0 0 0 0 0 0 0 0 0 0 0 0 0 0 0 0 0 0 127 0" result="hardAlpha"/>
<feOffset/>
<feGaussianBlur stdDeviation="6.9"/>
<feComposite in2="hardAlpha" operator="out"/>
<feColorMatrix type="matrix" values="0 0 0 0 0.813559 0 0 0 0 1 0 0 0 0 0 0 0 0 1 0"/>
<feBlend mode="normal" in2="BackgroundImageFix" result="effect1_dropShadow_97_816"/>
<feBlend mode="normal" in="SourceGraphic" in2="effect1_dropShadow_97_816" result="shape"/>
</filter>
</defs>
</svg>
