<svg width="52" height="52" viewBox="0 0 52 52" fill="none" xmlns="http://www.w3.org/2000/svg">
<g filter="url(#filter0_d_97_814)">
<path d="M16 19C16 17.3431 17.3431 16 19 16H33C34.6569 16 36 17.3431 36 19V33.2639C36 35.8612 32.9237 37.2313 30.9931 35.4938L27.3379 32.2041C26.5773 31.5196 25.4227 31.5196 24.6621 32.2041L21.0069 35.4938C19.0763 37.2313 16 35.8612 16 33.2639V19Z" fill="#1E1E1E"/>
<path d="M19 17H33C34.1046 17 35 17.8954 35 19V33.2637C35 34.9951 32.9492 35.909 31.6621 34.751L28.0068 31.4609C26.8659 30.4341 25.1341 30.4341 23.9932 31.4609L20.3379 34.751C19.0508 35.909 17 34.9951 17 33.2637V19C17 17.8954 17.8954 17 19 17Z" stroke="#F8F8F8" stroke-width="2"/>
</g>
<defs>
<filter id="filter0_d_97_814" x="2.2" y="2.2" width="47.6" height="47.8698" filterUnits="userSpaceOnUse" color-interpolation-filters="sRGB">
<feFlood flood-opacity="0" result="BackgroundImageFix"/>
<feColorMatrix in="SourceAlpha" type="matrix" values="0 0 0 0 0 0 0 0 0 0 0 0 0 0 0 0 0 0 127 0" result="hardAlpha"/>
<feOffset/>
<feGaussianBlur stdDeviation="6.9"/>
<feComposite in2="hardAlpha" operator="out"/>
<feColorMatrix type="matrix" values="0 0 0 0 0.813559 0 0 0 0 1 0 0 0 0 0 0 0 0 1 0"/>
<feBlend mode="normal" in2="BackgroundImageFix" result="effect1_dropShadow_97_814"/>
<feBlend mode="normal" in="SourceGraphic" in2="effect1_dropShadow_97_814" result="shape"/>
</filter>
</defs>
</svg>
