<svg width="52" height="52" viewBox="0 0 52 52" fill="none" xmlns="http://www.w3.org/2000/svg">
<rect x="1" y="1" width="50" height="50" rx="25" stroke="#F8F8F8" stroke-width="2"/>
<path d="M20.7842 17L20.7891 17.001C22.4731 16.99 24.1578 17.5325 25.4668 18.626C25.6843 18.8074 25.9997 18.8088 26.2187 18.6289C31.0248 14.6751 38.2493 18.4156 37.6894 24.6104C37.6894 24.6104 37.6889 24.6151 37.6885 24.6191C37.4903 26.7109 36.3769 28.6531 34.9814 30.3564C33.5853 32.0605 31.8743 33.5645 30.4199 34.7832L30.4111 34.79L30.4082 34.793C29.2289 35.8047 27.6563 36.8508 26.3799 37.6621C26.031 37.8837 25.6876 37.8407 25.415 37.7227C25.3667 37.7017 25.311 37.6722 25.2519 37.6387L25.0723 37.5293L24.831 37.3652L24.8223 37.3594L23.9238 36.7617C21.7471 35.2803 19.0333 33.1712 16.998 30.7285C14.6809 27.9473 13.1547 24.6201 14.5088 21.2686C15.588 18.5982 18.0126 17.1298 20.7725 17.001L20.7754 17H20.7842ZM30.7441 18.9883L30.6445 19.0059L30.6426 19.0068L30.6377 19.0078H30.6338C30.631 19.0083 30.6274 19.0092 30.624 19.0098C30.6191 19.0106 30.5972 19.0141 30.582 19.0176C30.5797 19.0181 30.5774 19.0188 30.5752 19.0195L30.5176 19.0244C28.819 19.0272 27.4667 20.0361 26.3125 21.3506C26.2829 21.3842 26.2471 21.4137 26.207 21.4365C25.9132 21.6035 25.5413 21.5524 25.3125 21.2832C24.1621 19.9281 22.7771 19.0332 21.0439 19.0186C18.2241 18.9953 16.0085 21.1587 16.0283 23.9824C16.0404 25.6632 16.8565 27.2724 18.0264 28.7686C19.1892 30.2556 20.6654 31.5861 21.9463 32.7217C21.9512 32.726 21.96 32.7334 21.96 32.7334L22.3935 33.0947L22.4023 33.1016C23.3164 33.8524 24.5394 34.7946 25.5264 35.3984C25.7277 35.5214 25.9832 35.5129 26.1758 35.376C26.2246 35.3412 26.275 35.3055 26.3281 35.2686L26.331 35.2666L26.334 35.2627L27.6738 34.3145L27.6758 34.3135L27.6787 34.3115C29.5708 32.9431 32.1539 30.8558 33.873 28.5068C35.6021 26.1441 36.3709 23.6497 34.9297 21.3525C34.2441 20.2602 33.1803 19.4664 31.9297 19.1533L31.9307 19.1523L31.9238 19.1514L31.6318 19.0928C31.5083 19.0715 31.3649 19.0503 31.2207 19.0332C31.1248 19.0219 31.0306 19.0126 30.9453 19.0068C30.9174 18.9995 30.8893 18.9925 30.8603 18.9893L30.7529 18.9873L30.7441 18.9883Z" fill="#F8F8F8"/>
</svg>
